<mxfile host="65bd71144e">
    <diagram id="z9Huu_ejP_rdb5zjWcMs" name="PÃ¡gina-1">
        <mxGraphModel dx="866" dy="478" grid="1" gridSize="10" guides="1" tooltips="1" connect="1" arrows="1" fold="1" page="1" pageScale="1" pageWidth="2336" pageHeight="1654" math="0" shadow="0">
            <root>
                <mxCell id="0"/>
                <mxCell id="1" parent="0"/>
                <mxCell id="18" value="1" style="endArrow=open;html=1;endSize=12;startArrow=diamondThin;startSize=14;startFill=1;edgeStyle=orthogonalEdgeStyle;align=left;verticalAlign=bottom;" parent="1" source="8" target="2" edge="1">
                    <mxGeometry x="-1" y="3" relative="1" as="geometry">
                        <mxPoint x="243.94" y="351.40999999999997" as="sourcePoint"/>
                        <mxPoint x="293.94" y="471.40999999999997" as="targetPoint"/>
                    </mxGeometry>
                </mxCell>
                <mxCell id="2" value="User" style="swimlane;fontStyle=0;childLayout=stackLayout;horizontal=1;startSize=26;fillColor=none;horizontalStack=0;resizeParent=1;resizeParentMax=0;resizeLast=0;collapsible=1;marginBottom=0;" parent="1" vertex="1">
                    <mxGeometry x="93.94" y="304.40999999999997" width="140" height="182" as="geometry"/>
                </mxCell>
                <mxCell id="3" value="+_id: Objectid" style="text;strokeColor=none;fillColor=none;align=left;verticalAlign=top;spacingLeft=4;spacingRight=4;overflow=hidden;rotatable=0;points=[[0,0.5],[1,0.5]];portConstraint=eastwest;" parent="2" vertex="1">
                    <mxGeometry y="26" width="140" height="26" as="geometry"/>
                </mxCell>
                <mxCell id="4" value="+Name: String" style="text;strokeColor=none;fillColor=none;align=left;verticalAlign=top;spacingLeft=4;spacingRight=4;overflow=hidden;rotatable=0;points=[[0,0.5],[1,0.5]];portConstraint=eastwest;" parent="2" vertex="1">
                    <mxGeometry y="52" width="140" height="26" as="geometry"/>
                </mxCell>
                <mxCell id="5" value="+email: String" style="text;strokeColor=none;fillColor=none;align=left;verticalAlign=top;spacingLeft=4;spacingRight=4;overflow=hidden;rotatable=0;points=[[0,0.5],[1,0.5]];portConstraint=eastwest;" parent="2" vertex="1">
                    <mxGeometry y="78" width="140" height="26" as="geometry"/>
                </mxCell>
                <mxCell id="6" value="+password_hash: String" style="text;strokeColor=none;fillColor=none;align=left;verticalAlign=top;spacingLeft=4;spacingRight=4;overflow=hidden;rotatable=0;points=[[0,0.5],[1,0.5]];portConstraint=eastwest;" parent="2" vertex="1">
                    <mxGeometry y="104" width="140" height="26" as="geometry"/>
                </mxCell>
                <mxCell id="7" value="+is_admin: Boolean" style="text;strokeColor=none;fillColor=none;align=left;verticalAlign=top;spacingLeft=4;spacingRight=4;overflow=hidden;rotatable=0;points=[[0,0.5],[1,0.5]];portConstraint=eastwest;" parent="2" vertex="1">
                    <mxGeometry y="130" width="140" height="26" as="geometry"/>
                </mxCell>
                <mxCell id="23" value="+create_at: Date" style="text;strokeColor=none;fillColor=none;align=left;verticalAlign=top;spacingLeft=4;spacingRight=4;overflow=hidden;rotatable=0;points=[[0,0.5],[1,0.5]];portConstraint=eastwest;" parent="2" vertex="1">
                    <mxGeometry y="156" width="140" height="26" as="geometry"/>
                </mxCell>
                <mxCell id="8" value="Assessment" style="swimlane;fontStyle=0;childLayout=stackLayout;horizontal=1;startSize=26;fillColor=none;horizontalStack=0;resizeParent=1;resizeParentMax=0;resizeLast=0;collapsible=1;marginBottom=0;" parent="1" vertex="1">
                    <mxGeometry x="343.94" y="291.40999999999997" width="140" height="208" as="geometry"/>
                </mxCell>
                <mxCell id="9" value="+_id*: Objectid" style="text;strokeColor=none;fillColor=none;align=left;verticalAlign=top;spacingLeft=4;spacingRight=4;overflow=hidden;rotatable=0;points=[[0,0.5],[1,0.5]];portConstraint=eastwest;" parent="8" vertex="1">
                    <mxGeometry y="26" width="140" height="26" as="geometry"/>
                </mxCell>
                <mxCell id="14" value="+user:*: Objectid" style="text;strokeColor=none;fillColor=none;align=left;verticalAlign=top;spacingLeft=4;spacingRight=4;overflow=hidden;rotatable=0;points=[[0,0.5],[1,0.5]];portConstraint=eastwest;" parent="8" vertex="1">
                    <mxGeometry y="52" width="140" height="26" as="geometry"/>
                </mxCell>
                <mxCell id="10" value="+nome*: String" style="text;strokeColor=none;fillColor=none;align=left;verticalAlign=top;spacingLeft=4;spacingRight=4;overflow=hidden;rotatable=0;points=[[0,0.5],[1,0.5]];portConstraint=eastwest;" parent="8" vertex="1">
                    <mxGeometry y="78" width="140" height="26" as="geometry"/>
                </mxCell>
                <mxCell id="11" value="+object*: String" style="text;strokeColor=none;fillColor=none;align=left;verticalAlign=top;spacingLeft=4;spacingRight=4;overflow=hidden;rotatable=0;points=[[0,0.5],[1,0.5]];portConstraint=eastwest;" parent="8" vertex="1">
                    <mxGeometry y="104" width="140" height="26" as="geometry"/>
                </mxCell>
                <mxCell id="12" value="+descripition: String" style="text;strokeColor=none;fillColor=none;align=left;verticalAlign=top;spacingLeft=4;spacingRight=4;overflow=hidden;rotatable=0;points=[[0,0.5],[1,0.5]];portConstraint=eastwest;" parent="8" vertex="1">
                    <mxGeometry y="130" width="140" height="26" as="geometry"/>
                </mxCell>
                <mxCell id="13" value="+create_at*: Date" style="text;strokeColor=none;fillColor=none;align=left;verticalAlign=top;spacingLeft=4;spacingRight=4;overflow=hidden;rotatable=0;points=[[0,0.5],[1,0.5]];portConstraint=eastwest;" parent="8" vertex="1">
                    <mxGeometry y="156" width="140" height="26" as="geometry"/>
                </mxCell>
                <mxCell id="15" value="+finished_a*t: Date" style="text;strokeColor=none;fillColor=none;align=left;verticalAlign=top;spacingLeft=4;spacingRight=4;overflow=hidden;rotatable=0;points=[[0,0.5],[1,0.5]];portConstraint=eastwest;" parent="8" vertex="1">
                    <mxGeometry y="182" width="140" height="26" as="geometry"/>
                </mxCell>
                <mxCell id="20" value="n" style="text;html=1;strokeColor=none;fillColor=none;align=center;verticalAlign=middle;whiteSpace=wrap;rounded=0;" parent="1" vertex="1">
                    <mxGeometry x="323.94" y="391.40999999999997" width="60" height="30" as="geometry"/>
                </mxCell>
                <mxCell id="24" value="Answer" style="swimlane;fontStyle=0;childLayout=stackLayout;horizontal=1;startSize=26;fillColor=none;horizontalStack=0;resizeParent=1;resizeParentMax=0;resizeLast=0;collapsible=1;marginBottom=0;" parent="1" vertex="1">
                    <mxGeometry x="587.94" y="304.40999999999997" width="166" height="182" as="geometry"/>
                </mxCell>
                <mxCell id="25" value="+_id*: Objectid" style="text;strokeColor=none;fillColor=none;align=left;verticalAlign=top;spacingLeft=4;spacingRight=4;overflow=hidden;rotatable=0;points=[[0,0.5],[1,0.5]];portConstraint=eastwest;" parent="24" vertex="1">
                    <mxGeometry y="26" width="166" height="26" as="geometry"/>
                </mxCell>
                <mxCell id="26" value="+ assessment*: Objectid" style="text;strokeColor=none;fillColor=none;align=left;verticalAlign=top;spacingLeft=4;spacingRight=4;overflow=hidden;rotatable=0;points=[[0,0.5],[1,0.5]];portConstraint=eastwest;" parent="24" vertex="1">
                    <mxGeometry y="52" width="166" height="26" as="geometry"/>
                </mxCell>
                <mxCell id="27" value="+ question*: Objectid" style="text;strokeColor=none;fillColor=none;align=left;verticalAlign=top;spacingLeft=4;spacingRight=4;overflow=hidden;rotatable=0;points=[[0,0.5],[1,0.5]];portConstraint=eastwest;" parent="24" vertex="1">
                    <mxGeometry y="78" width="166" height="26" as="geometry"/>
                </mxCell>
                <mxCell id="28" value="+ answer*: String" style="text;strokeColor=none;fillColor=none;align=left;verticalAlign=top;spacingLeft=4;spacingRight=4;overflow=hidden;rotatable=0;points=[[0,0.5],[1,0.5]];portConstraint=eastwest;" parent="24" vertex="1">
                    <mxGeometry y="104" width="166" height="26" as="geometry"/>
                </mxCell>
                <mxCell id="29" value="+ comment: String" style="text;strokeColor=none;fillColor=none;align=left;verticalAlign=top;spacingLeft=4;spacingRight=4;overflow=hidden;rotatable=0;points=[[0,0.5],[1,0.5]];portConstraint=eastwest;" parent="24" vertex="1">
                    <mxGeometry y="130" width="166" height="26" as="geometry"/>
                </mxCell>
                <mxCell id="30" value="+ answered*: at_Date" style="text;strokeColor=none;fillColor=none;align=left;verticalAlign=top;spacingLeft=4;spacingRight=4;overflow=hidden;rotatable=0;points=[[0,0.5],[1,0.5]];portConstraint=eastwest;" parent="24" vertex="1">
                    <mxGeometry y="156" width="166" height="26" as="geometry"/>
                </mxCell>
                <mxCell id="31" value="" style="endArrow=open;html=1;endSize=12;startArrow=diamondThin;startSize=14;startFill=1;edgeStyle=orthogonalEdgeStyle;align=left;verticalAlign=bottom;exitX=0;exitY=0.5;exitDx=0;exitDy=0;" parent="1" source="27" target="8" edge="1">
                    <mxGeometry x="-1" y="3" relative="1" as="geometry">
                        <mxPoint x="613.94" y="415.40999999999997" as="sourcePoint"/>
                        <mxPoint x="583.94" y="471.40999999999997" as="targetPoint"/>
                    </mxGeometry>
                </mxCell>
                <mxCell id="33" value="Question" style="swimlane;fontStyle=0;childLayout=stackLayout;horizontal=1;startSize=26;fillColor=none;horizontalStack=0;resizeParent=1;resizeParentMax=0;resizeLast=0;collapsible=1;marginBottom=0;" parent="1" vertex="1">
                    <mxGeometry x="587.94" y="681.41" width="156" height="130" as="geometry"/>
                </mxCell>
                <mxCell id="34" value="+_id*: Objectid" style="text;strokeColor=none;fillColor=none;align=left;verticalAlign=top;spacingLeft=4;spacingRight=4;overflow=hidden;rotatable=0;points=[[0,0.5],[1,0.5]];portConstraint=eastwest;" parent="33" vertex="1">
                    <mxGeometry y="26" width="156" height="26" as="geometry"/>
                </mxCell>
                <mxCell id="35" value="+criterion*: Objectid" style="text;strokeColor=none;fillColor=none;align=left;verticalAlign=top;spacingLeft=4;spacingRight=4;overflow=hidden;rotatable=0;points=[[0,0.5],[1,0.5]];portConstraint=eastwest;" parent="33" vertex="1">
                    <mxGeometry y="52" width="156" height="26" as="geometry"/>
                </mxCell>
                <mxCell id="36" value="+enunciation: String" style="text;strokeColor=none;fillColor=none;align=left;verticalAlign=top;spacingLeft=4;spacingRight=4;overflow=hidden;rotatable=0;points=[[0,0.5],[1,0.5]];portConstraint=eastwest;" parent="33" vertex="1">
                    <mxGeometry y="78" width="156" height="26" as="geometry"/>
                </mxCell>
                <mxCell id="37" value="+glossary_rets: [Objectid]" style="text;strokeColor=none;fillColor=none;align=left;verticalAlign=top;spacingLeft=4;spacingRight=4;overflow=hidden;rotatable=0;points=[[0,0.5],[1,0.5]];portConstraint=eastwest;" parent="33" vertex="1">
                    <mxGeometry y="104" width="156" height="26" as="geometry"/>
                </mxCell>
                <mxCell id="41" value="" style="endArrow=open;html=1;endSize=12;startArrow=diamondThin;startSize=14;startFill=0;edgeStyle=orthogonalEdgeStyle;align=left;verticalAlign=bottom;exitX=0.471;exitY=1.007;exitDx=0;exitDy=0;exitPerimeter=0;entryX=0.5;entryY=0;entryDx=0;entryDy=0;" parent="1" source="30" target="33" edge="1">
                    <mxGeometry x="-1" y="3" relative="1" as="geometry">
                        <mxPoint x="517.94" y="461.40999999999997" as="sourcePoint"/>
                        <mxPoint x="663.94" y="591.41" as="targetPoint"/>
                    </mxGeometry>
                </mxCell>
                <mxCell id="46" value="Criterion" style="swimlane;fontStyle=0;childLayout=stackLayout;horizontal=1;startSize=26;fillColor=none;horizontalStack=0;resizeParent=1;resizeParentMax=0;resizeLast=0;collapsible=1;marginBottom=0;" parent="1" vertex="1">
                    <mxGeometry x="843.94" y="681.41" width="140" height="130" as="geometry"/>
                </mxCell>
                <mxCell id="47" value="+_id*: Objectid" style="text;strokeColor=none;fillColor=none;align=left;verticalAlign=top;spacingLeft=4;spacingRight=4;overflow=hidden;rotatable=0;points=[[0,0.5],[1,0.5]];portConstraint=eastwest;" parent="46" vertex="1">
                    <mxGeometry y="26" width="140" height="26" as="geometry"/>
                </mxCell>
                <mxCell id="48" value="+order*: Number" style="text;strokeColor=none;fillColor=none;align=left;verticalAlign=top;spacingLeft=4;spacingRight=4;overflow=hidden;rotatable=0;points=[[0,0.5],[1,0.5]];portConstraint=eastwest;" parent="46" vertex="1">
                    <mxGeometry y="52" width="140" height="26" as="geometry"/>
                </mxCell>
                <mxCell id="49" value="+nome*: String" style="text;strokeColor=none;fillColor=none;align=left;verticalAlign=top;spacingLeft=4;spacingRight=4;overflow=hidden;rotatable=0;points=[[0,0.5],[1,0.5]];portConstraint=eastwest;" parent="46" vertex="1">
                    <mxGeometry y="78" width="140" height="26" as="geometry"/>
                </mxCell>
                <mxCell id="53" value="+description*: String" style="text;strokeColor=none;fillColor=none;align=left;verticalAlign=top;spacingLeft=4;spacingRight=4;overflow=hidden;rotatable=0;points=[[0,0.5],[1,0.5]];portConstraint=eastwest;" parent="46" vertex="1">
                    <mxGeometry y="104" width="140" height="26" as="geometry"/>
                </mxCell>
                <mxCell id="54" value="Grossary" style="swimlane;fontStyle=0;childLayout=stackLayout;horizontal=1;startSize=26;fillColor=none;horizontalStack=0;resizeParent=1;resizeParentMax=0;resizeLast=0;collapsible=1;marginBottom=0;" parent="1" vertex="1">
                    <mxGeometry x="333.94" y="694.41" width="140" height="104" as="geometry"/>
                </mxCell>
                <mxCell id="55" value="+_id*: Objectid" style="text;strokeColor=none;fillColor=none;align=left;verticalAlign=top;spacingLeft=4;spacingRight=4;overflow=hidden;rotatable=0;points=[[0,0.5],[1,0.5]];portConstraint=eastwest;" parent="54" vertex="1">
                    <mxGeometry y="26" width="140" height="26" as="geometry"/>
                </mxCell>
                <mxCell id="56" value="+entry*: String" style="text;strokeColor=none;fillColor=none;align=left;verticalAlign=top;spacingLeft=4;spacingRight=4;overflow=hidden;rotatable=0;points=[[0,0.5],[1,0.5]];portConstraint=eastwest;" parent="54" vertex="1">
                    <mxGeometry y="52" width="140" height="26" as="geometry"/>
                </mxCell>
                <mxCell id="57" value="+description*: String" style="text;strokeColor=none;fillColor=none;align=left;verticalAlign=top;spacingLeft=4;spacingRight=4;overflow=hidden;rotatable=0;points=[[0,0.5],[1,0.5]];portConstraint=eastwest;" parent="54" vertex="1">
                    <mxGeometry y="78" width="140" height="26" as="geometry"/>
                </mxCell>
                <mxCell id="58" value="" style="endArrow=open;html=1;endSize=12;startArrow=diamondThin;startSize=14;startFill=0;edgeStyle=orthogonalEdgeStyle;align=left;verticalAlign=bottom;" parent="1" source="54" target="33" edge="1">
                    <mxGeometry x="-1" y="3" relative="1" as="geometry">
                        <mxPoint x="483.94" y="694.41" as="sourcePoint"/>
                        <mxPoint x="583.94" y="693.41" as="targetPoint"/>
                    </mxGeometry>
                </mxCell>
                <mxCell id="59" value="n" style="text;html=1;strokeColor=none;fillColor=none;align=center;verticalAlign=middle;whiteSpace=wrap;rounded=0;" parent="1" vertex="1">
                    <mxGeometry x="453.94" y="721.41" width="60" height="30" as="geometry"/>
                </mxCell>
                <mxCell id="64" value="" style="shape=stencil(lVvJch03EPsaXVncl7Pj/IerLEeqOJZLVra/DxgV+URwBiPfHKmh4dJEA03mLnz48fDp+/2dtz9enp9+v//78fPLw1345c77x28P98+PL/jXXfh4Fz58eXq+/+356c9vn1//+/unHtn/9cfTX/0v/POK88743FHe/vv6E2eNt///5NdXwNfHb28B1sT0MwDXjA0MqF4AikkEcKYEAcjj1xPgjY8CkEyIKyAYWwQgmEpfiMY2AfAm1BWAbzoBsKbRF7JJ9RzQTLZrfDFNxFcT2hrfTBK7UIxftxmZ4sQEsvHrhL0fa3YYj+Uoa3w0WYw/clLgi0nsQDBl3WKsQBLjD8at8cGalMQ5MInivRyP4/0NmK+Mp2MWsj4EfMpCNVWcAWvyeu4jMlDGR7/GB5kPdpzAGZ9GhpzEWxpPMUHkJ+LX/I/NBEFD299PyGexv9a4NZ9TGH/hJD6s40nRNLk+lD8J+yvHX9d8SNVEsZ7g9fV8ZeygomlT1r+f/TihJ/kf1vXM0UR5vuyaP1nzWxhsMOOrPC/z6yO+zAw/4R+3npfi5XiSqet8S5T5lge7zvgk+XDj24KfyPhG80U+iPM72W/GNxPF+jTO/zoZ4CS+rflf3SiBZwUvrxtQkVKK4MCIa0bXoE/AVoMrioiu8n6tkTWZLDgCIiCsi1ovSDqNMzgBxRSxCxABkVapmqJ0ROE6X9tgmmNA5YPcrFYqjStlu9BzzdR145qTO925sTFATbqT3bqszUt5BkDdAGqVQHcxM6CJSXc9QXMImk8DEzwARQmQODJnAqJW7skUzwBFeeCw3BjQRLaClMp64tpU2seAyqwKQBZzgCgj2gZA7UNwY4oTkKU3CGFkzhtAVl+I27JmqaQg5KhUtTJM2DGgGu8ZkMUXIOUsHdE6yu8xwHE1ASCKbIX440nXkb/HgLSdafCI+sKc4htAFKwB/bcD1MZBAFIFAqAKmoECTJkBaqcTJk0mzU7deowozPeXiMZC+2JQ0IFMx3raEILxpxY2b275YutyYvN4kRx5c/xIvyIIH+KR5AwAiply25KjaP3mtrKoT3XXmxtvKMIve4XIcpWgODk1kqxyJbNI7IQvkq/shB/1pKtpW1lUuQTVaSlbdeGF7GTu89J4QnaSk4TaUJ0RAJgsrdw46NRCqq+NuncMiGy2ofrUPkCnWpK6yFY16cSlHcpVDikfaGPVXwCADUGUMhEjJrKss4dzDKi809gZJdcBoBpUZwk4BjQWcUjHLKgSgLxmK1yWcqHIHCrtOCGqtPdUIx9a5JCQzEQCRTfOutZeJw0eUbapTd/2xhqr1hkAVIFAbUptdOlMk/ayOQQAJV+nZ/WFyF6x2NFQOwPUlQRQYlTZBfX6dZVykSWrbYqpVz2101DC1MJJMr27Et56OFmtUuYjilIvh5S3Lo6/GhIZguykyUeRdTQkO7jwDEC9/1QlzQBADgIiTdnXm1CYgDTs5jGgsqlJUc+hskpM0Ggqlyqf6WSlk4P+IhcEeS2/0HhZY5UWHABa1qh9FgDEfPAUqoPbZS19IcgW4k04TwBoRvV/7N6FtrLuHiDCRX/mAFGlz9+nEYqxP7VQIcnedQesVQsmuOqVpb2DzW4aQGYOAKcTlho0QbcTAfArgQcnG6g3gzsB+oaon9L1DPk2LrHOAKR1e9dW8fFGTb7oIRWWTD7ryrsxfr+4U9S0FSEfR/E+A1A3xAd5kdAtCd0E+nFX9s7a7t0w8mfqodIq6bsEAEhjuabromd36aq0EBBllHyu6FLtmDWu7pMtF1I3uxen4ni7E1cbB/nt6KlBGM3qM0dAltrpOyl4DrfmktPqofumlcj6tYSyEJGvEdvI9zPrx93Ecc9z5i1pUfUtHwyMXydQtCvb+qdzjY/9ehuVY8orSZIwIyS8kxRXJfO1Y7pqadC1aZSU2i/pOF41QmFELFUFycCwFZkq4Vjg43g7pjepRb566JeemeLlrWPZHtvISt47b3QAZD2A3g/EQ1KDdfW+rqfVr0Ia76+V6w8pTo1AK41hysxydlj84/jt2YmVrwD6I4HK8ap769hGXsRvzzZ0fNxU9kX8pln0fGPhC00r8x8aP/B41PrHTR1Y2V+MkXvVVsoVOII938R5gSHIvD7yJma7WNH5j3jH66N8WrS8/k46R5gNfionm6OIJ0mq+QHWhN/u6VdaZTRzb/GqKRLmo6A3/KbGP1smN/5U9SXknZ+Veg1bH9XLblzYGrWzF3Ycv3WCdX2BS2KjJev1ftsZ5HsEmCrqPOhOBTwVm3Z57YJ44ueo88fu41HXkJBfZd3fNBzRWTwpyjT64MfxlfknSf12k2u3eKUHfOEuYpL506/wqetonKiP+LXleMWffXqe4lW97ttDDUF5KdCfdVHnV+ZbT0fWt/KpSRjH9Rav9OT+rKOMi/DjeM+9wCL12P7OpI4DcRZP56XKjlWnV7oz0a9c3faGSur5Xn7oRZTs8/hpt97nj3o553j5pAv2jK4P5TUX4onPr1+3c0Gy8l3dOx7c4x+35/pfHr9+fX3t//b3/LwfP3r9XwPCx/8A);fillColor=none;" parent="1" vertex="1">
                    <mxGeometry x="282.35176470588243" y="628.2335294117647" width="243.52941176470588" height="230.58823529411765" as="geometry"/>
                </mxCell>
                <mxCell id="65" value="" style="shape=stencil(lZ3Zkh23EUS/Zl47sC/PsvwfihBlMkyTCoq2pb834Im+d5jVfTB445KJ3gBUVVah7kv86Y+Pv/z+4SW4P75/+/rPD//99Ov3jy/xby8hfPry8cO3T9/Hn17izy/xp9++fvvwj29f//3l19e///7LRM4//evrf+YIf77yytHcJAX31+s/+CP3///D31/hnz99+QHes8BbuYfXI3iBd0/wkhSeCN534O3I+qgdHrUfwYwOcO8OF/fwre3g/VHLDj4cpe7g45H10yI+HWnrefMx/+/dX2vguz5vo/GLnTyNxq9H1PupNH47nE6fSuO3o+j3LTR+P6I+b4Hxw5hvurZo5Q580fEzje+PoPhE43s7nyPhw5H1/kMGfDy8zjfvEF9//L7u6IRPR8yCr4zvVfCZ8PnIio/0vEXXizsCjT92ch0f3089chO8o/tpR9TxHY3fz9t9Hz6O/9bnXeD71vheLd0CH47qd/BR99sFPm3i87l9vBNfNu+/qn1Z4JtdX4jvR4kb+OTUXC/wY/vYeZ8D33fuP4Uj7byfFNVeLPF553uldDizfhlft+4n2/0Q8eVwW+9nzM+t71U33087/M56Gfi2he92Pyd8Htv3zvca+L5zP9nv7Sc5HHHrfsZ83rqfeLSd+ZPT3n6V84X9InzZW7+5bn6vpv7JEt+37qcfded+ijvdu3fihzu1M38Gvu48bwkaTy3xW/aoxCPszM+Bb1vjj3hnZ/8sF/4h4sd83nqfY7/dGn/ERzvrq9TD76zfgS9b76dpvLzEpx1/deC7Pi/5w6Wf4cr7/O2B7/p+yJ+vYz2qv5EJ7+1+Wxlv4k16n3Xs/xovU/w18F3jr0TizIWeQPFsTYcPgqd4f+BlvoXzhV3js77Px4Z0hzfjUzxbi+7/AePravSKgHpCNesxsDhWNd6Pp0N0jW8ar0V+3nbe7hNP+kPtak/jadDu8LULvgO+ObUv6fwgd/ii+EB4r/ttOiLjRR9Lp8N1h69mfMKHw+v9L/Cyfy7x8v4X+DG9/B4+ZcEnep/DXgfBZ8InjQfTuUHe4au+n0b4rP5GPgOyO3yLgg+EL6q35PMD3uFFD8n8vPXcvp94fN6q9q7w8zYdv/D6avp+yinQXuP7OdwTnyriZT8fGzCPL/7bI2C9xHd3bgdPfGe8xOP1NIDX+Ifc+cQHxicv+Ej340/34onPhA8a79dTELrDJ73/xuOLfWmnQHiNj6qHtDOgucPL/TScbwNfsuAz48X/bPx+kvoPDVNrAy/5gn5+kDt8VnyEXNzAV8VXxmtq0J0W4ZqQjcPnzhDljiA7rh9rgh45nxmLNwTyobvRWH1AJ30QRDTyEaOAblQyn9AtGwRNwww7A35fNzrHzKQxQRNDBT2zQZCd2tdT270mVJM6a2jLBkF8G995MRuxZhA6rbZh/X6cfDM/xgSRH2e8tCB0JTSa3lUDuOHhJybICp0hAa2HqpJceIjOdwSJ+YZTREH3JHQlFIhCezsn84OQMeweBDGD029ZEOQZyhn53hK6EnABNY08pulkQpRnaOeEvyUUJeASNc7X3O2ZIOrTIFC4NQgiJ0V3CrJ3BPF3okeHcBKyEnBNt3N9PQiB17SR/GNkH6md7+RBSGx0u07v+DCrtwS5pcybwNgY5ZYKm92uBmVmCmlNd00ExXrO3zuCRL6DQKn3SZBbamdweEuQt9RR/BkEEd8GgdSlSZDo1GH5xgXBY3zaTf5oZhiZIAFMirymuxr2lNjF7ZrSTfkMom8J8gyFg5iursMgoJfbdYmmh651R5CisNRWC0jivNRPpe2S4J1Td2YwaH5fMLJDs3jF8Kf3u8HgAjTLCCjRXjHi9l1FlBmuGAmdxStGPnMLGwzyYK8Y5dx4NxgkIFwxKkoadq7nRcxrVlNeBJlmvebOHqPZEYo7a0DfuecMwuKWZFcrnl1MK/yElf2SrXwQFvZLCRFrwS4IadN+DQJVK1oLWTKma6wNLoUDU2PlB4FW9iTId1iEjV0rFEpbGTzxVEo/RftbQlBCY/slhOpWS1Q0i+pXS1Tcs+pXHqPUWM/MHhMkkTRTe7xExSeti7DReL0zuccxmvjVNWHxpfXca+Y13c5i4DeERi5m03RALZgP66YebhDQxWxasFMrL9GmFS+DsLiClNDVtgp9VTNumJScgemPm0DtmHWbsbJXwiJslLRbc5h3sJpFWwSmVRNdM9XHcpYINYOAUnDV4LoF1rKr1iIMwuIKISsBsw9Vs3VtEfoWdZNbZD3bqIRtESsX81oTe+5FJbmWWKI2KbWWzyL6W/HVKSHwM0hRyyDgVmmygoOA231W96cVfgYjgg8CemRGZp+pSBbBRZIbBHR/kpaqD0KhKyTN1bfCol9SebdVrIYZhGAIFAXO9E5RAlqgqPWNMwPLV5AE+SDgW4qqmreF7hK0JL41fmhTM9oaf2mvdnoQ0G/1alBaZzfUqQg+CFSHMghe8loOEyqt6zYzCHQSpjWtLBwEPJhmjOJ8DZyLl9zCzN4uigOEEDgbX3QBDQI567O8oSgB63WyutJj/gYu0BB5d6ZkuQJEwoG5aMFkDYsmJRQzKUs1BVFramZWlglyyGWmZYnwULDfEMjsDoLED8/d9prgzYfLGDQ1rwZlGgAmiAvXWVacpVmGkOihndb69IyvdTid4iROu8oEzZ5nVHNq13LqQaDJNz1tIRR0Ep++/BsCfYcRLUiUNR0iOo5bVaZ4JpfvCN4QKKU/QiQtMijo/jyDsDcEynnWYlZcxfxIzeqGTuearpDNd6gYgI/YthsCOYm21HWGIExQg1L5tUaNdmcYRVeIpvqkoRtag9lbGxZvDIJaoMav1WuEMuNfJsgJiRnD0zOYkuwpK3DNdzFvqTNBP1znKvdutsqOZdyla3b7qctdE8w55ilGMkF3vo4C7ZQBzS2R+lNMW4GpU/PZB9FmOmdsBkEy9G/U+WuGPa6+ZogT9w5GaHsMs9W8g5G3GaaOa3n0RiuO1gwxLEtGUM1lyfBaHfMOhhNz13F5F6d6wmIe5q7zcM50uEJuxj52zO7nqlHmYrXmoqmIxQYyU2tmtVKJzzwJGJWwOGoopZZzX946yzhNBez8OZjv0FBEyf5MC7zToM6EcFYCJbqTybTNmja4wjzgagjkCSWjpE5NjwhGI5wSHT1D0Yzn9EiJkLXpReeCg5TMEs0YDiVzjGFGBnSFoHXoi2AleRVRFuHQPAlvYg966Ni1dLonVINj09rdRdAYrWKRMHEWzWmDFcG0L1gTRHpdEbLmI1cEc0JkTQh7Dx3NzrckhLBFCGbXWBLi3ncwfTbWBNGbVwSnhYFTE6HZ6ozPyyJK6CYySLgJzFp9MzUoYRPMabunZH1NqMbscjGX7Qfz1LjvCCqMJtxmQjbCaELlaJ6oMlcgiWMeydsjmKY/a4JODdYIQzDhUMTZOggaDj1W+TXBHOQdBEpgBm8sUMRKwnmS2FyBpNd5tNkQKM3rzeHohRrsu1G0H+eN7wi68wUuLLNLNJy5tzuCvaUFQbfKJcEZzRwJ1ezeS0IyV6BEga8azE0CXaGYzZgTBb4YVT5wfZ+JrGcaiq5gOikMAtbqZePzBS4gTMZZ9/wd7Ebm8XSmj5o461xObNv3LXJIg6DOicdNwFsFz2Nqbp6dMs9AmbZB0DXtuIef6TnXuUp7EGwuj45qzBNmSQlUBuSdWaJuUSJr1oPjwyC6tbbOx1N0YrTONT16oGCRUDWVVa3jGzInTWaGF9t2yqRojRtDmHOXDQWNqhm2gcdGHir3t4bFbVW1hlZRwinqJLWKZxDN8b1WWQFWk9AKi1YX5SAo56oFmfUmOL6E9M9U8rVSon3bBp6SUtnMz4x1SFkNWksoxGRV4FvCfJGRw2ZnA1KGNPpfVGplLfprAWP5rJH5wPP4Wpvm0QHOKp01PveV1S4t6veyevC1oyOYNRtdO95PUvejNjQZSW3SokrTnLMeeGpMY3yPWnB/Tmryasb1nrRIblFaayqnFrW7SZ2tymdKo4qKNeJ6j1pRVwPuJ6YuqwZcv1HPbc3OS7B+o5ZLzDQirBfTl2BRYh6vatgRL67owJP8GE2fjYaua9R499np6w4v91/RcY0aNM3sHo4vGvPsnEaNidW+lIxF08H0LUncuFntS4novwVz3iVyo2S1LyWgvQ7maIlH/yRoZmPgKRViagZnZ0LG/3g/uWPmJGjtz8BTYUFQ/zY3XF9Bq1szNzoJ6s/kgoqSV/uSuVGOV10vZw6HtWwuc6Ml02c+Ryx39HquOwe0R6ZPaebGcF5rfzM3wvPqzydOmXqNUhPXaFzhaf5bPFf7WDxn3a7wAeeb4jnB5dX/TJxM8hrfJa6J9OqvpsjnJHX/SXGxXrTPWGDpReuO0kI9Un84eRbAtHIqebRHFu8W68viUXVRfOyL9a54jsev8ORPWjyXvV/hyZ+0+IJ1+KYiPebFegxN8WSPvPrPkY+9eE3TRD6I47UvVgxoj0zf6RiwrNSp3hI9ZrKc6evocD069c9Dx8yAKaR4Klo3ePHnA8d3Tmu+A8d3Ts/JPhWkG7zoS7PxHOLFn58KDMxnU4MUMvqHThXQkFHvcqbPasL169SfnxEljy/vM6I+Y07Vh4hlLxYf0F5bPP/I0RWeqrAt3uF6v8JTGtf+blFHf9h8L98W+4nMB8+nuJ3qA74u1rv2CquYT3Ianw48xadO419fUI8yff4HnvRtp1lDnxfrXfs2c3zqVE/wCeNNp/6ST4v9UH/HJy2eV/ZbH9Gfd1r8vmix59T/n4krxjfFU32zSfAMPPkbTvvWeu5XYX8XjLscOlt4jFXsxh/w3KHDmwqJxfBaKbkYXQ9q4kEFEyxw004TC9ZFKC7lVxWLeExkzR1cveZPF/1g9LRO4QIhlSkKVmgELeDLmMAOmqTMXJKiMRr3Og7a2CBhsUgwbaq4oEYTatxPKKo9THjvRu5MC7VT1C3ugh5NZzSMzaL+xlLEVIKRygN2jEp6lCpgsj1pTwJuoJ+MX41hsSkS55/7SxrVsOhkklD843cm5+bRJJsUI//0gsmQev5lCnvvDNd+sQu4tshdwEVNX8EXP0c6/vD8KdPfPn3+/PpLqG//X3/6dPzT68+mxp//Bw==);fillColor=none;" parent="1" vertex="1">
                    <mxGeometry x="270.5841176470588" y="258.75823529411764" width="518.8235294117648" height="295.29411764705884" as="geometry"/>
                </mxCell>
                <mxCell id="66" value="EvauActor" style="shape=umlActor;verticalLabelPosition=bottom;verticalAlign=top;html=1;outlineConnect=0;" parent="1" vertex="1">
                    <mxGeometry x="453.94000000000005" y="40" width="30" height="60" as="geometry"/>
                </mxCell>
                <mxCell id="69" value="" style="endArrow=classic;html=1;exitX=0;exitY=0.3333333333333333;exitDx=0;exitDy=0;exitPerimeter=0;entryX=0.5;entryY=0;entryDx=0;entryDy=0;" parent="1" source="66" target="2" edge="1">
                    <mxGeometry width="50" height="50" relative="1" as="geometry">
                        <mxPoint x="165" y="310" as="sourcePoint"/>
                        <mxPoint x="164" y="190" as="targetPoint"/>
                    </mxGeometry>
                </mxCell>
                <mxCell id="71" value="" style="endArrow=classic;html=1;entryX=0.5;entryY=0;entryDx=0;entryDy=0;exitX=0;exitY=1;exitDx=0;exitDy=0;exitPerimeter=0;" parent="1" source="66" target="8" edge="1">
                    <mxGeometry width="50" height="50" relative="1" as="geometry">
                        <mxPoint x="500" y="320" as="sourcePoint"/>
                        <mxPoint x="480" y="200" as="targetPoint"/>
                    </mxGeometry>
                </mxCell>
                <mxCell id="73" value="" style="endArrow=classic;html=1;exitX=1;exitY=0.3333333333333333;exitDx=0;exitDy=0;exitPerimeter=0;entryX=0.5;entryY=0;entryDx=0;entryDy=0;" parent="1" source="66" target="24" edge="1">
                    <mxGeometry width="50" height="50" relative="1" as="geometry">
                        <mxPoint x="500" y="320" as="sourcePoint"/>
                        <mxPoint x="630" y="230" as="targetPoint"/>
                    </mxGeometry>
                </mxCell>
                <mxCell id="74" value="Actor" style="shape=umlActor;verticalLabelPosition=bottom;verticalAlign=top;html=1;outlineConnect=0;" parent="1" vertex="1">
                    <mxGeometry x="587.94" y="1040" width="30" height="60" as="geometry"/>
                </mxCell>
                <mxCell id="76" value="" style="endArrow=classic;html=1;entryX=0.445;entryY=0.993;entryDx=0;entryDy=0;entryPerimeter=0;exitX=0;exitY=0.3333333333333333;exitDx=0;exitDy=0;exitPerimeter=0;edgeStyle=orthogonalEdgeStyle;curved=1;" parent="1" source="74" target="23" edge="1">
                    <mxGeometry width="50" height="50" relative="1" as="geometry">
                        <mxPoint x="400" y="900" as="sourcePoint"/>
                        <mxPoint x="190" y="630" as="targetPoint"/>
                    </mxGeometry>
                </mxCell>
                <mxCell id="77" value="" style="endArrow=classic;html=1;curved=1;entryX=0.46;entryY=1.027;entryDx=0;entryDy=0;entryPerimeter=0;exitX=0.5;exitY=0;exitDx=0;exitDy=0;exitPerimeter=0;" parent="1" source="74" target="37" edge="1">
                    <mxGeometry width="50" height="50" relative="1" as="geometry">
                        <mxPoint x="400" y="900" as="sourcePoint"/>
                        <mxPoint x="450" y="850" as="targetPoint"/>
                    </mxGeometry>
                </mxCell>
                <mxCell id="78" value="" style="endArrow=classic;html=1;exitX=1;exitY=0.3333333333333333;exitDx=0;exitDy=0;exitPerimeter=0;entryX=0.436;entryY=0.984;entryDx=0;entryDy=0;entryPerimeter=0;edgeStyle=orthogonalEdgeStyle;curved=1;" parent="1" source="74" target="53" edge="1">
                    <mxGeometry width="50" height="50" relative="1" as="geometry">
                        <mxPoint x="850" y="870" as="sourcePoint"/>
                        <mxPoint x="900" y="820" as="targetPoint"/>
                    </mxGeometry>
                </mxCell>
                <mxCell id="79" value="" style="shape=stencil(lZzbkhzHDUS/hq8Vdb88y/J/KEKUyTAtKij69vdGeaNnphMzp5dvyyVyp7oKBSQS6PlQfvrz0y9/fPyQ45/fv339+8d/f/71+6cP5S8fcv78+6eP3z5/t58+lJ8/lJ9++/rt49++ff3n77++/fuPX7bl/ukfX/+1/8J/3nCphTQ3Ksf/vv1mhrL+/4u/vtl/+fz7o30NPYv9zGBfwign+5RCLADIIdUzoIYyAZBCjWdAD2kAIIYsS1ohtdeAFeL5A3IOtb+2H2GctzS3sGBBPbR2tl+hwhO3Yz8O+1JChPXU0M7PW3rI6bV9CfN8AsX2B3yi6InVfDjVU/usB1ZbyBUOLIx+tjcfhfUnPd+WQoH9j2Ge19PqscIX9vW8/23g88aQzuvv9hu4M1H9reewYH/M/uw/vYUO/mz+P872E/0nhrZO9iOGAvZ2wc9/f/B9SaGfn3dU9P8csqyn4/na7RD7if5cdf/HChPWU8M6208LSeCfLcyzP8yMMbSHed7PWTFejTDP/j8b+vPU+z4tIsF+Lr0vcxxJ4VXAHekMmEfIexXSmwAWPoEljXy+AssuBSUNu1EOMCgtFb0Ey4IKAeqRhB4Ai56hhnl+6JU58dmpNgVMumcW9s8HtwoH0qGRxQCD2MF0D135E5Z7hnp44/O7H9W5V8NglLNmSwNMeIad/uQZOLzYfa5JARMe2i60BIw1QqZnmG6X7MYRYCnrMsACXyoWs+UZ5pElngOy8kYDVAKYqzUFdALUMKoCJgG6cz7jLcRzjKhlBZC3Gg8qDkCZqia3Syt0cO9ajsj+ABjE7ZqSnXWRrMZxXR4Aiz5hHQXBjS7HG0N5nt/S4QnvRpRQf/Az3KW7RAx1j0vE1Lx1hTBiJxH2EpGUTF4ch3HB7jxkEXsooScFUIjt9cj+jz5In9CePEOjZ7BE5AAFCEG3ROQuHl1tAwwXzyaka6PAGsSZo3RbQFQAsUoDDGEQA9P1ZtlTAQ18yQCrKyDBSY+kladlrgEh1oh8WgogqmsAqYUNEIm7FheerJiBbTWAMjkmBPfi4gFAV3Q0rWeMo9B9MIAUNAaodA7dbesFw+8ucxXMjWM4gmxhAe7DcCLG5op0DvOgMA8AfIapZcTiMteqMI0a5l10cOsJo6ZCdEatLA2Q4aQNMOUcEvKse2X4AKBa3UpDpeBcdxigu0KFbtwsLsxEvHFWfep9iAcvegUQAWdyjtv1qgN0qmC7lvgGyLRLPXSRPZlcWokroslkvmuA2RQQaZfmESPeWVYbYA0FoLe6YmtyobKPqSiASiFzBD24dvyJV4BVFdDgGbb3ZwUk8KV9v8Q1KjJqu/JSCk2uYZerMCcH43vYegBU2qXsTrqgL+3QK0vKoUFcMoC6RkZNcAsBsqR0yMzPAdVd0ciuUTVUTg4zOyufvdUSQKeHbhpbDUC9iTuzeFASKSlu7nI+h51XIZBtdhQVgOfQNS4ZN8jUzOhOzW1ITraYIQ9dsYY10qn6rzkLLWloYh8siG4eLAeXkLdupi1LYrlvc/lzXOoXvjS1qdFv1eMrQJOuAJcDBpAbd6+KXgHW+aT7hWssrV77RTBeeh+sdiTxYcslSQEYW9exgBug8Laug9Y+AKgsW04q2xU2P7TUcQZIdKeX6utW9KO+vg6B8gaI2EDcCkBTAOrl0fWY2k3V/wEEUaxniIk1x3MEufgzxAiFeolPEP0QSN6NYAX5OYI6fs8QFRWRZ4hbi+LdCA6zzxGUjZ4huPf6DBExlj9H5B/z3XoRzd2FqhcjAu7KVla3fVCoLB/5sFMvqMRS7lG5Tb1j7TnB1I616Y7mDkCTFz5fVBZ37nr8A4BGBXYKk4OrGNcMILS08sXbWfWcL+pNgXoFmA5AF3Un+qwAdI2pCm+9yW4vyUpTAEVNAxS5QNzM9PzJAJV3KRYFREr041C9b4CIovPmgA5APeJ7j+0AFFYh7vLsA4BUagNIa6VwhvRM2QAYl8aRd26AwYVgVw25dFS0dnkQFZDJW10BUhofXHfzTtwjNoAM3JSbZPWqTJOGbOHG+K7rZKSKlUUDVDkH1v0MkM93usRDUHpV/YqSUi7cux4J6gBk7n76gjxPDmRVg0AeXNe51nu+qH6LG53rqI56YSTzrNQeqZCHrqhdbom5KOBCPpIrmi9KnKQ3LvP8nwHE+fYIHp1DchOPF/V1VOpgAGQC0blGxFJzLq1+04WGvNxYKM8QzaUZKF1IwlM7sQYg6mAAid6JS/45NBgbgA5uK8bSR+fobQDx1sSzXwZISQF00rMrb00NfckAOj3ADb3pxpoSN/RmO0SKG4AVLQPI0LMBaDrGAMKXEkvCsx7H9ABoJM1XN5vA7bZZtb2QmCTuIcOsAHS+m8r3AKC4dFe9bwAOM/MW5x4AxCp9MyxxXDJA0ZEPTLszaeGXmIbuDmBXQKZziM41eKRky+TSAeR29dJz40C5RXLp9CK72p1hEfIxv42hl4fD6uga6Qf3kZvuj1Fisq/qphdTFcVplqg1j6xEjJtsIylLuhipcENoDbt+w8+38zSPUyY4XvelM27cwetTp4GZgXUn9rMEYPYyQsfZoHcd7+BxdbOPun4ihN3VCjwM0qt7X+MQ/l/Zi0bCuWkPkA2xp3bOFtylOMKiduvtUn1h6jP7qOuh7qkfsePibovtuj8kdG+tPYs9nVdbSj+Yvrelk7Pc/G1ThY6MHNDsS1V7HqSUhiDLyM1xTCYezY1H85hPu4XLuz01cLZ6r+uhsbrmyBzP5beqpUrG6W6zT7oe0mn3sKyeF/WfmidB7A9u5CghBWpupilhvrvr+3d7KsHNXvaH22d1uWHi4xfP7WdYun7Kv/vtMyFk2FbdOr2uJ8H+bJle95/ye+2aH7lbWJsqp0xxzV7iA/fOa1U+GVE2re5NGZYCtnw+xZ4GGLZ6HtWe1uP4GL/uVt1QLBP6mlTfj9jTMPus+0/trhp13C4iv6pRZQl+PbG4979YaDT7rOuJ8Lxlakee6x2zz+pvaO9e+7i0d+eL9l11oUv79EPraUe58m776M6L7KsKMBf2RZXnS/v6Q+vJmi8u7dMP+c9toPad/hl9/CH/9y9j8X3c72Pq36f4kF0njOPV1tQ1X+Drtl3r94j5Orspucivw1VtX3L+8i/osaZzp+/vy++bDmq+Jr5h9nK/WMXKXo5HPu9fecwHIX1l7/gqtfzS8vUCvka6lA9wvZMcv+J6zeyFv3G96V865W5fcpPZF6M2Q+97RT5j9kXXQy9omb20Ky++DqFrvOUpvdQ1/rD+c+8APOhLNFjU3VAfj/x0zdcdh0CSG+7nucfUdEJj4H0xe/F/bpHv/oXa44vdTePb5MG5y69ksR/u3+fy2+cvX96+Dubx//X7X+xXb98dU37+Hw==);fillColor=none;" parent="1" vertex="1">
                    <mxGeometry x="37.375" y="243" width="234.625" height="310" as="geometry"/>
                </mxCell>
                <mxCell id="80" value="1" style="endArrow=open;html=1;endSize=12;startArrow=diamondThin;startSize=14;startFill=1;edgeStyle=orthogonalEdgeStyle;align=left;verticalAlign=bottom;exitX=1;exitY=0.5;exitDx=0;exitDy=0;" parent="1" source="35" target="46" edge="1">
                    <mxGeometry x="-1" y="3" relative="1" as="geometry">
                        <mxPoint x="743.94" y="751.41" as="sourcePoint"/>
                        <mxPoint x="903.94" y="751.41" as="targetPoint"/>
                    </mxGeometry>
                </mxCell>
                <mxCell id="83" value="" style="shape=stencil(lZzbkuTGDUS/Zl4Zdb88y/J/KEIr74bXWsVqfft7ozxR7GYWeTj9thohu8mqApAJoPot/vTn51/++PQW3J8/vn/7+6d/f/n1x+e3+Je3EL78/vnT9y8/7F9v8ee3+NNv375/+tv3b//8/df3//7jl2E5/vWPb/8an/Cfd5x3W3cDFdx/3/+SN9f//4e/vtt//fL70T5FsU/u2r5vPYt5i2Se2sG8bDGTeUhiXsq1eduqP5jXzTcy903MKzxM3crxYdqWPZm748r0LcLDlLnM09x2IsLC5/msu73Hjdq3fbcPW6nX9mlLx7f1aXPw+XGr8vl5y/D5cQvyvnULsPr2tMe99W3rsJ5hc/VgH9xWwd7Pk7XbB3x+P3dnt09bhLPpN3d8fttxl67t7Wnl+e10BrIvx/MwnAfe12356OfRvhE81+LC8XliQOda7SO6y2qftobro/Zl87Bfq33dMpzn1b5tDQLnYp/czfqrvcfzudrHzb+ynim99r6JI/lqX198nrZFPM9qv+eOj9lnO+Ev2fstg/+u9haRXlnPbOf/lfOTE8af1T7PCHllf4w/ucxseWEfj/Ew162xvfCMvjk8P5ra979c2EuyLpbvcL98ONpzvnObO75viTf+7o7vW/JM+B/8fItXaK/Pb/6F66nr0zBfr+tv+ZT98Xh+St8aPn8+8oHK+dfN1d7tLR5iPpXnr7a/RGynt+72Ec9D0HxdE/qLsYVj/q0ZnyduTsincVtY/7h8fp1/ueBvwvdqmzt4YZ+P57N2zKdpsq8n+wb7lbd4fJ7mJsO8sG9e7Tt8vnnT8fmbxXP4/DKzw24fpode2Peu9hn2q6q/mH0H/7XoevT3FpE/tC10tS9o3458r6XNw/p0jf9mT/mlL5+fpwddCc1YFYAE2k0++AQgjzRBFGVJC4ZoA7SsANpjk1AikgxATmCALi9tqofeYSfNTwCiKabSvFNAp2+wbZWNM2JGgDzP5ROAVLkBuqxSR1fzRbWJASh2mXSU5GoAIisGkEpBt3xIO23BMyiggDt7i55H/+yeCy99hrcnQALAUIjyDQE9bqTApoAM7zA093EfesSNG0mqKYBI+Mg68g0JVfGoRlUFkKwZdZWgAPKHUDXR9jxLYueANnnEE4CY4wiVRxftXAUzZS651gDEjUyaB1nWOtPjOSAu+1C5epO0PGEAoo+mzoXvdMtg9EhVY6sBiPAMfe4UQBUEE+he3qHPotE5wC+r1DFUpqDV0c4i1jS6Ro0+6zrngLysUkfZnnaW+QTotEr7QXgUJh0qCxP2qbyG6Epm7hB5kV8fQOQXv2ORGDdLZQCptY/NgO3OYUb4D+5eXqqmBqhwZA3QvQLoQOW0JImOPDpnPR/jjEMkyAvzvvGiXGewewJQqTh31c59z8bn3N4tMb+j2C7+ZFkpdBTbuJdiTVlo2R0gz6P2UUBVF7oDNJUEd4CuNfsBgKNRnRJwC+Ek+kzz+yXmd/BpE/1xySqUJOrKUBrWyWvWQsZN3jIdH70CKDPWprpm5F7YB1PmmiQqkleT2urTFemxaW1R68ZQCixri8rYDUDU0tSnBuOM9NjEYZCzxMTPpJvG1jRrFueAOgX0E9sl1WGAVhQQ6Bssk8o7BAz3ba/hPQEoVJpOUn/w2GYygPQdDUB1zCGsxIEcUsshrBa5SJWTIaycAqiUPISViOqGOc4AWpypGAR60GqsnS7qVhogLQAqvz0OwlM1hNLukG7y0jcFnagOZE5LFV8D6DtEFHMGkJ5r24XLFUBLQB75tAFEVFtow5deCLgFTzytSeclRp2VAZIULQGQvjSAJMVaJpk4B+SltJwnIboCSEKpEdOuAbRYHKb4ugLoO1iYIUCZzaMdwO2DXpRg3fQnDJClgdMweo+MJh2WiuzeACJIB+XibxCdf9Mjeqj6HZCxaGyAeFxW45l4WqvWH0vEYt+DWeyAgGm3V6UOBqCS6CA7Rxe96QQOOnU83sWhBjJAWnqZRBIHwztuXG7IyAaHdAqgAs1gqcd3MFVE1GHwYJnjKrPgfgk4LmvO2KAZXF5GvxLvwwqIWH88AQSk0icAj02RE4DjILAAEkv8EwBLmhMAs/tTALU5TgCF88MKyNw7WgF7W+KjgICllhMAj8/0rsW+5Ca5vgJITSresMqurDK2mYivADqCdUMSuzLjUVXlZZXKScyo2B/1qh2QUIs+1dB2ROQG1SmCDscZIqC6PEfQtNoZwnN38RRBWusMsfdwXkDQ1NQJInBf/hxBk6RniIbeeo4g3nGO4H7yiuAJiUc19wlw47CShAPPbKwOO8YU2GElhoSMHegR1gSQOHA2DQlj0pe+YSFDITIZWviZAejM9qXDEG7UxEJ7DYC0t2xV9mFX9FcAmVYJHjvQq14ZA78soaoAHBPrRaQFx4QuqfYdM2j00osy9Z3ZU9IKgQHiS/rdADcVAik5+4Yz+j1o9dU3vr8QTr6B5lhHLeiYIscwAe2DX5pblT3OqTgY8w1cMRMy5MtdEU9UnQHIRde64hjqoFJnU6F5cx2gVVXXBiBFNApq0pdM2BRvRR3IANR2b1nLUzdXIFrWOweexXJLy+GL2AprUedWxkQRfcNSZzcA0bMWNAN5luOj9C8v7ZFwGEBKzgagHNfcyVUXclEDeAE4PBqjxqcda3TR2rT/ZwBiJ3Vv6exVcDwZtS5DJdwTqkt1F6tftSzjfXyZKevB43qF2cu5u7lbtbviw558s0aNkRVds4alaITT+2av5UTk9tXrCcrcuFw6nRmnkc1emlOZb5N17WhnrCSWvTG7y2OUoqVprT8hZStNz2fC6ehSZ0PmYU/pYwzH6/NT2i9Fz3PCBqfZSxJPGILWbnycB/DKXmZmIhLUx2WDhz3V09dxAr6NUpLWTCPqtRKVYUfky+s8RMTh3xLWz6dijNl7tb8Z6Mi6nhTPi1vINc78lWXaOWC5KvdJ4B72lC9y13gbsDue2yI0X5zBCTMgXdl7fV+S1utQUMDbQzkvhBT5qNkHSdhYeclJu0MelX5er7/iWGpern94nDXIQc+Pxx5gXq6zeiw8ZKeTig577nm57sV189Q1XzuM/2mpazis+KU2KeTDnjhlqspaHd+OqRqvHLZfUlE+4LCznZYGqePbN0uP12EJPyUdMnJYnkhRr0vdTHAuuvvWXsZ5buy9Tm/e2jtdT7R36/m5sX/p82PXGtetvXtlfeIyKXRjX7U3fWvvXln/uIjtG/usk7A39um18xmjXo+/sQ+a727slwG4G3uno2Bs/yjif8x/wyJQOT6M4rruF8WfsF9G/Vg8HL/zoftF8TZk1ad8m3u9SOJQbw66rJ9P+S5EHTT1fE8lqD961MujHq2fT5XUkf6Vz1A3cyyf8gEqAz1KxU/8h/pnXf2X+ZVvyp+Zv633r5gf+qr5iPmq2Uflt3gJriytIBzi8kXrGzzJ4Bf9yL824PPSpeE7eUnHQ1iPmH3S5ye945PmL9ZTo1Cq+pT0mtnL+Y/4azk+qH+xnjX7qPqdRoZ80P5PxLEQ77W+l+6upko+5XrF+rNPXA/xyw2IhPVAs/daD8HrkLc/Q2X/ePyG1W9fvn59/wms5/+vv3llf3r/vaz48/8A);fillColor=none;" parent="1" vertex="1">
                    <mxGeometry x="816" y="634" width="211" height="216" as="geometry"/>
                </mxCell>
                <mxCell id="84" value="" style="shape=stencil(lZzZ0tzGDYWfRres3pdrx3kPV1mOVFEkl6xsbx90ZFIzB/w/Du+04MwMm2jg4ADd7/JPf3z45ff371L449vXL39//++Pv3778C7/5V1KHz9/eP/14zf707v887v8029fvr7/29cv//z86/e///7Lslx/+seXf61P+M93XNpSWKAU/vv9H2LZYv//v/z1u/2nj58v7Ee5Y1+3Wu/Yt63e+vy+xXbHfmzrr2/bx/psP7eSyT6UJ/sUthHeto/bzM/29gth/eM20rN93tog+x6f7esWYP3j1p7XJ7Utw/rErcxn+47rE7c8nu3H/glv2cvz2vrjeop9DluK9+wnPq/ax63i+qt92jL4s7fPuwe+aG/799bzmj+gv6l928Kt57X9eOt9Ddy/3n5e7BexL2H3wBft7f3e+f0lbfXO+pe8Vfz9fz7dYV+2jv6Tnvd7qdtA//lztQ/7tk38/fE5PpS+R7A37MNz/CwD84Xtvuf4WebW4fdbdH2OnzVsDfzn+N/D3t4v7PewZ6vD3uIzPG/YSlH7CfHNvFF+f8b3G/ZsddgX9M+wR4PDvm4Z1yfI+jTkA2Yf1H7C/vL2/cIf1H5sDf1B7S1fgD87+xaQD3j7iPHwzP7W87a0Z+TX3lfLF+9X/KEVjP9hf/sP9gOfNz3n91a3jv4v+6W1i/fb5Pcb38Dn7fL7B/KZsO/Ww35uEeObxE+zp/3u+E8PF/FZ+FiPGN8cP+zGN5DPC1/tGZ/Xol9Te+b/9Tm+9XLB58fz++0Wr8D/7dcWtZ+wPnmPBod9w/xr7PrZH3rH9cn7tz/Yd7A3tiafP5Aflt3bH+wnrM/BFg575s/GBqPaD1jPumfD3X4EjD9W/TW1H7D+xl6e12dE5G9N86PZD1j/pvl9mIfD+rc9+j3YN9jvXfnYyMiHu9ZTZk/5vet+N3t6X0P3+yhYH5k3RrWv+Pl1qj3VU2P/38O+Ip+fWr+bfYP3OzX+mD3xk8PbD/vG9VrQDWwAcggDVHnivr+TtwAzKCBTyrAaYCqAcqoB2nOSHGMPA+eApCxiHH7yFqAGBWAaS1oHjLkF8KOYlUgYgBKfASTTG4AidbTQ+7z1Z+BSuOye9gAo9KbrVpICsNire612ACL7UtP0ZwD0pab5zADoS10TlAEmAYZmnHlwjLcA4q0GaOR8U2ssA0ziREGL3JmRNK4qNCqg0TdEDZMGoLBkvCjLspadaZ8DDhr3AKgQl9LB4x4AyOyK7ulp5IG+oWpuNkBigCRbAxQSjw+t+AFA3mrpU+RdAxCdMkCXh26Yz1cCdQAKlSsjRgWQorRSXFJAB0AObsc15sxBSdvsWCTnqPnBAIUBPSmgESCpjmYA4pEG0GA8MHrn7N702OPIOaC4LTp28nEOqG6LDtTyc1UmYIABGyibI8hDz71eOgd0La8NQPQnD027BiA9P0+34yZuUQNobGVFsFiS7QqgErscCs4DgFKWAdrzi4vh0G3OEWkXWW4garyLmPUewrLavIsYNxFFBY8XEOMmou5M7wZi3ES029/RtLS5RHSN5JeIcduvjhDzMuKIAK8iqhMxX0D0e09e495mfBmRdnby4jY3QHehigJJdeLSRaiqZa9pXgyGS+x3sY3CbbUc476BAroBfMogVlebywDc4aldJdOVJyHt1a6b9SIT1+FooO0TAswtyZvuu0Oeq0DBvbiO1aYB+lQAldgt7kz3RVbXXE2+iCawOgMo52o4GtCy9iKNLNNsgwE8f6fhj1Z0U19UCK1ojDUAEZzmS+yCer0Bhiu8iHO15gh/wQ6IAborvEhBaraBhgKotGsHl34EkCg6tKs0D/HjLYDWggXHQAww3UOjrjuVRywAfcNUZfQC0IO2Nq4BWiFcAKLjvpcAzUC8Sj057svvoedd7X7RNXpxCcW8FXZcr0oGJk8wdF/1847rtoHkxVVUwXrff/Fj1KBvGK6047i0mjIOkAngi3iWOgzgv4EaBSO4hMLB2ADzHiA6JnAJ0CBwAUgn+QEfOul43cV7GPksA4EvGcBnIOJLo2hH5cK9R9EW5EV+GNXVsxwEDKCabcEm5/BCRMYu22jakjAAjd2sJkpXQCJAdykr4SCTATRlsYxsAPXWhEreGCe6M1UoBuhOnaf6wQDSw5g8rfajJ/IAQPeeLscF5EurJ5IVQN46g4ut3CX58XkPAFLyptN3Ljo9BpA6bq0bOJ8BhmtvUYfBHEGkPwNQW3U6OWjwnOTyftc1JF9a+ysrgCYv1g52rdJJLy7rrN7g2e4Vhdw3RHrTxXXPj3L2LYCMB42KddwPZnEACr/pqkL1RQN9ZTTXQcc37bSscUjX54CmNNQA+Kad9mV5lUr81bGYCqC0awAReRc3oBfX9lV/AJCIYOW2DAoZgAYbV0HvJ1UoCDj1bhxK9FsACWQj4Oz2anE8vzhjgZ1co7tpJJ7+mU5PNABpAgaQWtSoL4b7oQXHxcDTCaBzmBnKNQxAJc1Sk6oCiP4YoMhQXkO5aAGaAjChDA33vSKbWYCuAOoarlZTUgA1MqcTjq0UJK3yFEDazAkg82zPGQCZgAckpKEngIitUgP0rABS4RZAvDVwnh7ap+8Bi9c5lAm0ebVFpfBbM7C0rNMNIQ8cf1hdSDeVi8F4urHijvND0zUtWsc5twWQwd/GWXRqPW0AfA9TC45WUTlZvQA3q01nLRbADWvjMN1UCbhlJidTuwMtoQS8OibP+6FFjt5TO4wXA/ariSNvOvCJpnB2RiDQxNEJYvCpphNER1ngDNFuP0e9/Rzl9nNk9PIzROITgSeIiOn0HIGn3k4QAT39HIEnJz2iTKxvzhE3vWQ1dO+triHwRMMJouOMvN+ChQeKfFQo3KvygarwYJePnYX7PD6cF9bmfUoqPPPns6QBIpMPoQZrKIS5hJDANXfCXEKI7MVpxzlUtyiBw7krWUrgZe17GbcD8oVY07XftkaMaFm7KlRriImoQdMuTO5XBbZMCufGzucq8sxT52tKUZ6h8iod2+UBgIyrqhCeL3ULGZrNmYNA0QadAbA4LXoWKidUzqebPcoXMoQTnHLE027TzUNlPp6y5oKf41K+UBWyElkDkOpsAOHW6Zigewsg46AGQDkoaVxKg0mgEy/TwPbZmgB3twqgjufm6wyAYSbqlG1qeE5ljb1PBWDp6ERkA6C6EzW2pooTHzPoaIIBaJh/KedyOUXBCSivzaeCp1GXEj8VcNVfkG/g84RjalxKmZtbU+OSAWgYyHdhUsLE7vs8KaG64ztJ6xjmRa9KVimia4yuo/YpYo4bTQPZukmAOklN9aN11J8BwjUubkZZPcOsAOwONxcEAoaZUV0gCzg44BulkaWU1YpNCkgQyIYbIo8spayG9VAAHZTyPfTYuY0ZNaGsK3noSOLUZY0V55P8eEUsWHD05sZ3WbdYh4jloRP6Ui+aFGPkc55JiW4MSB161JbHOkoIL64HN8uAJ9+XLChtHpSQ23Qn6HACpQ3XzuPxwaFMpuMcUOtO6MS+cOtOxkelojV9Yw3VNT/Y1/C0RqvaFG484VZ1MKShP7SiqbPiCZhWNBFW3GTrIokh9nQuryVXcrO/RdUSC85ftKDNrII01c/oFp4Pn64uRHm2DuU6GbNNdUfB+WaY2hytwBKvVseyse1V3dUAiaeq3dUGCfVJs5eh6sgn/ZM2jVkFrO7qtIhHxqq7eolv/qnuqqCIowEnpx6w43ByrgLV2+JaSxFJoz8bErAeL11nRwPu3+JkkYB1ZnGaBd/UZPZRP59yfCk6nh4wPxZXWQesnkpSAht2Bz+3jzoPEPAmtxJU+WK9ObvRLD7/kofqLRf2rkq5tI+6/mjvCoIL+6rq5oW9m5u8sM9KKi/tw631Sd4/0T5qv/DCPmhFxvZGH/ud379EHt2P5J9Gv6Y+L56U7n49ab8setTEnipWf/w8IH9Y9EJ/D8mTKXv/pHiVkvLDgDX9uipUP5/i7Y8C/rV4vpZDiiruJk69OofzndWlwvc4n/qLIThfWxmbNJ9S5RybO22JSqy/bCPxjSRV+U/C0t9qXonnzN/WRb36+TSDbSWy8JnMvcbsxHAUz2PS6QPmz+sSGbXHi0LcLTUF9/u6Bkd6VVjPRndEr/AVNUHrzYI3L03dvpXlYGUDlWV/3eyV5+tVfKjItYeGhopDr12ZXsPZ/a6KVOPTae6KvqsbvmRYD92+KYvv6PWu6OooE1Xl5IPPXuv42WCKqgrFwD6lP32MAd9dhcc3a2Y3188XdOiQ/tpf4DRJmx8xoBsk7X1YfKAWa3K6asRjnMllz4TlgbtI0ezpZfmLy/PNi85ZIj2zx0uSTi6C54smvT219M4ujqchxOuL7O0PP27B/+3jp0/fL9F//H+9Nd/+6fuN+/nn/wE=);fillColor=none;" parent="1" vertex="1">
                    <mxGeometry x="547.94" y="615.03" width="236" height="257" as="geometry"/>
                </mxCell>
            </root>
        </mxGraphModel>
    </diagram>
</mxfile>